<?xml version="1.0" encoding="UTF-8" standalone="no"?>
<svg
   version="1.1"
   id="svg2"
   xml:space="preserve"
   width="1335.0428"
   height="1211.4399"
   viewBox="0 0 1335.0428 1211.4399"
   sodipodi:docname="raptor-logo.svg"
   inkscape:version="1.2.2 (732a01da63, 2022-12-09)"
   xmlns:inkscape="http://www.inkscape.org/namespaces/inkscape"
   xmlns:sodipodi="http://sodipodi.sourceforge.net/DTD/sodipodi-0.dtd"
   xmlns="http://www.w3.org/2000/svg"
   xmlns:svg="http://www.w3.org/2000/svg"><defs
     id="defs6"><radialGradient
       fx="0"
       fy="0"
       cx="0"
       cy="0"
       r="1"
       gradientUnits="userSpaceOnUse"
       gradientTransform="matrix(15000,0,0,-15000,15000,15000)"
       spreadMethod="pad"
       id="radialGradient18"><stop
         style="stop-opacity:1;stop-color:#ffffff"
         offset="0"
         id="stop12" /><stop
         style="stop-opacity:1;stop-color:#ffffff"
         offset="0.50523462"
         id="stop14" /><stop
         style="stop-opacity:1;stop-color:#e2e3e4"
         offset="1"
         id="stop16" /></radialGradient></defs><sodipodi:namedview
     id="namedview4"
     pagecolor="#ffffff"
     bordercolor="#666666"
     borderopacity="1.0"
     inkscape:pageshadow="2"
     inkscape:pageopacity="0.0"
     inkscape:pagecheckerboard="true"
     inkscape:showpageshadow="2"
     inkscape:deskcolor="#d1d1d1"
     showgrid="false"
     inkscape:zoom="0.29309576"
     inkscape:cx="-18.765198"
     inkscape:cy="815.43315"
     inkscape:window-width="1920"
     inkscape:window-height="1009"
     inkscape:window-x="1912"
     inkscape:window-y="-8"
     inkscape:window-maximized="1"
     inkscape:current-layer="g10" /><g
     id="g8"
     inkscape:groupmode="layer"
     inkscape:label="ink_ext_XXXXXX"
     transform="matrix(1.3333333,0,0,-1.3333333,-1330.066,2989.3147)"><g
       id="g10"
       transform="scale(0.1)"><path
         d="m 17129.895,15207.261 c 128.6,120.1 40.4,255.9 -264.6,407.4 -112.9,404.7 -1286.7,583.7 -1696,817.6 114.3,-238 197.9,-431.4 187.8,-780.5 -12.1,417 -606.5,1144.6 -1455.1,2291.3 -953.9,1415.1 -1299.6,2907.3 -1037.2,4476.8 -734.7,-481.3 -1045.2,-1313.8 -931.3,-2497.7 -374,319.6 -596.2,834.6 -666.8,1545.2 -488.1,-802.7 -449.3,-1663.5 116.4,-2582.3 -553.3,304.5 -920.2,719 -1100.7,1243.5 -159.8,-1055.4 286.5,-1953.3 1338.8,-2693.5 -571.4,111.5 -1120,402.5 -1645.6997,873.1 305.9997,-1092 1142.0997,-1776.4 2508.2997,-2053.1 -408.2,-104.2 -930.3,-44.3 -1566.4,179.9 419,-623.4 1230.4,-1127.9 2434.2,-1513.4 1055.4,-355.8 857.9,-885 -592.7,-1587.5 1817.9,46.2 1955.5,901.2 3026.7,1720.5 616.6,471.6 1341.2,300.1 1344.3,152.7 v 0"
         style="fill:#0047ab;fill-opacity:1;fill-rule:evenodd;stroke:#ffffff;stroke-opacity:1;stroke-width:0;stroke-dasharray:none;stroke-linejoin:bevel"
         id="path36" /><path
         d="m 13468.895,19837.961 c 165.3,188 352.1,362.2 559.9,518.7 1642.1,1235.9 3975.2,906.7 5211.2,-735.4 1236,-1642.1 906.7,-3975.2 -735.3,-5211.2 -1054.8,-793.9 -2394.6,-941.9 -3545.7,-511.2 990.6,-254.4 2083.7,-72.6 2964.5,590.4 1537.6,1157.3 1845.9,3341.9 688.6,4879.5 -1157.3,1537.7 -3342,1845.9 -4879.6,688.6 -92.4,-69.5 -180.2,-142.8 -263.6,-219.4 v 0"
         style="fill:#0047ab;fill-opacity:1;fill-rule:evenodd;stroke:#ffffff;stroke-opacity:1;stroke-width:0;stroke-dasharray:none;stroke-linejoin:bevel"
         id="path38" /></g></g></svg>
